<?xml version="1.0" standalone="no"?>
<!DOCTYPE svg PUBLIC "-//W3C//DTD SVG 20010904//EN"
 "http://www.w3.org/TR/2001/REC-SVG-20010904/DTD/svg10.dtd">
<svg version="1.0" xmlns="http://www.w3.org/2000/svg"
 width="960.000000pt" height="960.000000pt" viewBox="0 0 960.000000 960.000000"
 preserveAspectRatio="xMidYMid meet">
<metadata>
Created by potrace 1.11, written by Peter Selinger 2001-2013
</metadata>
<g transform="translate(0.000000,960.000000) scale(0.100000,-0.100000)"
fill="#000000" stroke="none">
<path d="M4548 9195 c-1 -1 -46 -6 -98 -9 -52 -4 -108 -9 -125 -11 -66 -10
-112 -16 -155 -20 -25 -3 -56 -7 -70 -10 -14 -3 -41 -8 -60 -11 -657 -104
-1398 -433 -1943 -863 -817 -645 -1373 -1524 -1592 -2516 -45 -207 -76 -415
-92 -615 -15 -187 -6 -757 12 -813 2 -7 7 -39 10 -72 6 -64 10 -92 19 -140 3
-16 10 -57 15 -90 49 -299 165 -684 289 -965 110 -250 248 -501 395 -719 85
-125 249 -343 303 -401 13 -14 45 -49 71 -79 87 -99 280 -288 400 -391 342
-295 684 -510 1133 -713 114 -51 382 -147 525 -187 99 -28 269 -70 307 -75 23
-4 45 -8 48 -10 3 -2 24 -6 46 -9 22 -4 51 -9 64 -11 14 -3 43 -8 65 -11 22
-3 51 -7 64 -10 198 -43 808 -53 1101 -18 94 11 309 43 330 49 8 2 30 7 48 10
401 68 958 278 1352 510 230 136 505 331 659 469 213 191 405 387 531 545 19
24 47 58 61 75 72 85 339 478 339 498 0 3 18 35 39 70 199 328 409 905 485
1333 3 17 8 41 11 55 3 14 8 48 11 75 4 28 8 52 10 56 1 3 6 39 9 80 4 40 8
79 10 86 26 81 26 858 0 936 -2 7 -7 39 -10 72 -6 64 -10 92 -19 140 -3 17
-10 57 -15 90 -77 471 -265 982 -523 1427 -121 209 -355 541 -464 658 -13 14
-45 49 -71 79 -87 99 -280 288 -400 391 -342 295 -685 511 -1133 713 -19 8
-66 27 -105 42 -38 15 -83 33 -100 40 -31 13 -309 105 -335 110 -8 2 -68 17
-133 34 -64 16 -136 33 -159 36 -24 4 -45 8 -48 10 -3 2 -24 6 -46 9 -22 4
-51 9 -64 11 -14 3 -43 8 -65 11 -22 3 -62 9 -90 14 -27 5 -86 12 -130 15 -44
4 -91 9 -105 12 -27 5 -606 13 -612 8z m607 -409 c58 -6 125 -14 177 -22 21
-3 50 -6 65 -8 45 -6 154 -26 203 -36 25 -6 54 -12 65 -14 160 -31 492 -137
691 -221 103 -44 377 -178 399 -195 6 -4 33 -20 60 -35 83 -46 328 -211 432
-292 412 -321 772 -735 1025 -1178 120 -211 248 -495 313 -695 15 -47 31 -94
35 -105 9 -23 48 -161 54 -190 3 -11 16 -67 29 -125 14 -58 31 -139 37 -180 7
-41 14 -82 15 -90 2 -9 6 -43 10 -75 4 -33 8 -71 10 -85 27 -186 27 -689 0
-895 -8 -59 -26 -191 -31 -220 -12 -76 -68 -320 -96 -415 -108 -380 -255 -707
-476 -1060 -36 -58 -71 -110 -76 -117 -6 -6 -27 -35 -46 -63 -44 -64 -155
-205 -228 -290 -81 -95 -345 -355 -436 -430 -43 -36 -83 -70 -90 -75 -70 -64
-369 -266 -511 -347 -156 -89 -408 -210 -530 -254 -388 -142 -718 -223 -1025
-250 -36 -4 -96 -10 -135 -14 -81 -8 -561 -5 -650 5 -57 6 -178 21 -255 31
-258 33 -658 148 -950 271 -99 42 -374 176 -395 193 -5 4 -32 20 -60 35 -83
46 -328 211 -432 292 -628 488 -1099 1153 -1348 1898 -65 198 -134 484 -160
670 -3 22 -8 51 -10 65 -2 14 -7 57 -11 95 -3 39 -8 81 -11 95 -8 47 -10 565
-3 635 4 39 10 99 14 135 6 68 27 212 46 321 19 106 96 397 135 514 155 457
375 861 669 1229 531 664 1271 1150 2081 1366 133 36 319 77 377 84 24 3 54 8
67 11 13 2 49 7 80 10 31 4 63 8 71 10 8 2 60 7 115 10 55 4 102 9 103 10 6 5
531 -3 587 -9z"/>
<path d="M4545 7992 c-40 -9 -88 -48 -121 -97 -19 -29 -19 -64 -22 -1681 -2
-1449 0 -1655 13 -1687 17 -40 54 -84 87 -102 13 -7 460 -275 993 -595 534
-321 990 -593 1015 -606 32 -15 60 -21 95 -20 65 4 97 17 139 62 70 75 72 189
3 266 -13 15 -318 203 -678 419 -360 215 -670 402 -689 414 -51 32 -239 145
-264 159 -11 6 -87 51 -168 100 l-148 89 -1 1556 c0 856 -2 1563 -4 1571 -13
61 -63 121 -122 145 -33 14 -83 17 -128 7z"/>
</g>
</svg>
